<svg width="462.1750244140625px" height="195.2px" xmlns="http://www.w3.org/2000/svg" viewBox="18.91248779296876 -22.599999999999994 462.1750244140625 195.2" style="background: rgba(34, 34, 34, 0);" preserveAspectRatio="xMidYMid"><defs><filter id="editing-golden" x="-100%" y="-100%" width="300%" height="300%"><feFlood flood-color="#000000" result="flood"></feFlood><feFlood flood-color="#222222" result="flood-light"></feFlood><feComposite operator="in" in="flood" in2="SourceAlpha" result="flood-comp"></feComposite><feGaussianBlur in="flood-comp" stdDeviation="3" result="blur"></feGaussianBlur><feOffset in="blur" dy="3" result="offset-blur"></feOffset><feComponentTransfer in="offset-blur" result="comp-blur"><feFuncA type="linear" slope="0.7" intercept="-0.1"></feFuncA></feComponentTransfer><feSpecularLighting surfaceScale="200" specularConstant="20" specularExponent="1" lighting-color="#fff" in="blur" result="specular"><fePointLight x="-250" y="-250" z="3500"></fePointLight></feSpecularLighting><feComponentTransfer in="specular" result="inspecular"><feFuncA type="linear" slope="-1" intercept="1"></feFuncA></feComponentTransfer><feComposite operator="in" in="flood-light" in2="inspecular" result="inspecular2"></feComposite><feComposite operator="in" in="inspecular2" in2="SourceAlpha" result="light"></feComposite><feMerge><feMergeNode in="comp-blur"></feMergeNode><feMergeNode in="SourceGraphic"></feMergeNode><feMergeNode in="light"></feMergeNode></feMerge></filter></defs><g filter="url(#editing-golden)"><g transform="translate(87.85498595237732, 100.05499362945557)"><path d="M2.24-19.46L2.24-19.46L2.24-19.46Q2.24-24.45 3.81-28.29L3.81-28.29L3.81-28.29Q5.38-32.13 8.10-34.72L8.10-34.72L8.10-34.72Q10.82-37.31 14.50-38.66L14.50-38.66L14.50-38.66Q18.18-40 22.46-40L22.46-40L22.46-40Q26.75-40 30.43-38.66L30.43-38.66L30.43-38.66Q34.11-37.31 36.86-34.72L36.86-34.72L36.86-34.72Q39.62-32.13 41.18-28.29L41.18-28.29L41.18-28.29Q42.75-24.45 42.75-19.46L42.75-19.46L42.75-19.46Q42.75-13.18 40.45-8.80L40.45-8.80L40.45-8.80Q38.14-4.42 34.18-1.92L34.18-1.92L34.18-1.92Q35.14-1.47 36.45-0.96L36.45-0.96L36.45-0.96Q37.76-0.45 39.20 0.06L39.20 0.06L39.20 0.06Q40.64 0.58 42.18 1.06L42.18 1.06L42.18 1.06Q43.71 1.54 45.06 1.92L45.06 1.92L45.06 1.92Q45.12 2.30 45.12 2.59L45.12 2.59L45.12 2.59Q45.12 2.88 45.12 3.14L45.12 3.14L45.12 3.14Q45.12 6.78 43.23 8.45L43.23 8.45L43.23 8.45Q41.34 10.11 38.27 10.11L38.27 10.11L38.27 10.11Q35.33 10.11 32.19 8.48L32.19 8.48L32.19 8.48Q29.06 6.85 25.79 3.78L25.79 3.78L22.98 1.15L22.46 1.15L22.46 1.15Q18.11 1.15 14.40-0.22L14.40-0.22L14.40-0.22Q10.69-1.60 8-4.22L8-4.22L8-4.22Q5.31-6.85 3.78-10.69L3.78-10.69L3.78-10.69Q2.24-14.53 2.24-19.46ZM13.76-19.46L13.76-19.46L13.76-19.46Q13.76-13.63 16.13-10.75L16.13-10.75L16.13-10.75Q18.50-7.87 22.46-7.87L22.46-7.87L22.46-7.87Q26.50-7.87 28.86-10.75L28.86-10.75L28.86-10.75Q31.23-13.63 31.23-19.46L31.23-19.46L31.23-19.46Q31.23-25.22 28.90-28.10L28.90-28.10L28.90-28.10Q26.56-30.98 22.53-30.98L22.53-30.98L22.53-30.98Q18.56-30.98 16.16-28.13L16.16-28.13L16.16-28.13Q13.76-25.28 13.76-19.46ZM83.65-34.05L83.65-14.34L83.65-14.34Q83.65-10.88 82.46-8.03L82.46-8.03L82.46-8.03Q81.28-5.18 79.04-3.17L79.04-3.17L79.04-3.17Q76.80-1.15 73.60-0.06L73.60-0.06L73.60-0.06Q70.40 1.02 66.37 1.02L66.37 1.02L66.37 1.02Q62.34 1.02 59.14-0.06L59.14-0.06L59.14-0.06Q55.94-1.15 53.70-3.17L53.70-3.17L53.70-3.17Q51.46-5.18 50.27-8.03L50.27-8.03L50.27-8.03Q49.09-10.88 49.09-14.34L49.09-14.34L49.09-38.78L49.09-38.78Q49.79-38.91 51.33-39.14L51.33-39.14L51.33-39.14Q52.86-39.36 54.27-39.36L54.27-39.36L54.27-39.36Q55.74-39.36 56.86-39.14L56.86-39.14L56.86-39.14Q57.98-38.91 58.75-38.34L58.75-38.34L58.75-38.34Q59.52-37.76 59.90-36.74L59.90-36.74L59.90-36.74Q60.29-35.71 60.29-34.05L60.29-34.05L60.29-14.53L60.29-14.53Q60.29-11.46 61.98-9.73L61.98-9.73L61.98-9.73Q63.68-8 66.37-8L66.37-8L66.37-8Q69.12-8 70.78-9.73L70.78-9.73L70.78-9.73Q72.45-11.46 72.45-14.53L72.45-14.53L72.45-38.78L72.45-38.78Q73.15-38.91 74.69-39.14L74.69-39.14L74.69-39.14Q76.22-39.36 77.63-39.36L77.63-39.36L77.63-39.36Q79.10-39.36 80.22-39.14L80.22-39.14L80.22-39.14Q81.34-38.91 82.11-38.34L82.11-38.34L82.11-38.34Q82.88-37.76 83.26-36.74L83.26-36.74L83.26-36.74Q83.65-35.71 83.65-34.05L83.65-34.05ZM102.98-34.05L102.98-0.26L102.98-0.26Q102.27-0.06 100.77 0.13L100.77 0.13L100.77 0.13Q99.26 0.32 97.79 0.32L97.79 0.32L97.79 0.32Q96.32 0.32 95.20 0.10L95.20 0.10L95.20 0.10Q94.08-0.13 93.31-0.70L93.31-0.70L93.31-0.70Q92.54-1.28 92.16-2.30L92.16-2.30L92.16-2.30Q91.78-3.33 91.78-4.99L91.78-4.99L91.78-38.78L91.78-38.78Q92.48-38.91 94.02-39.14L94.02-39.14L94.02-39.14Q95.55-39.36 96.96-39.36L96.96-39.36L96.96-39.36Q98.43-39.36 99.55-39.14L99.55-39.14L99.55-39.14Q100.67-38.91 101.44-38.34L101.44-38.34L101.44-38.34Q102.21-37.76 102.59-36.74L102.59-36.74L102.59-36.74Q102.98-35.71 102.98-34.05L102.98-34.05ZM112.13-12.29L126.85-29.82L111.10-29.82L111.10-29.82Q110.66-30.53 110.27-31.74L110.27-31.74L110.27-31.74Q109.89-32.96 109.89-34.30L109.89-34.30L109.89-34.30Q109.89-36.80 111.01-37.89L111.01-37.89L111.01-37.89Q112.13-38.98 113.92-38.98L113.92-38.98L137.79-38.98L137.79-38.98Q140.61-36.67 140.61-32.83L140.61-32.83L140.61-32.83Q140.61-31.23 139.87-29.66L139.87-29.66L139.87-29.66Q139.14-28.10 137.98-26.69L137.98-26.69L123.46-9.15L139.84-9.15L139.84-9.15Q140.29-8.45 140.67-7.23L140.67-7.23L140.67-7.23Q141.06-6.02 141.06-4.67L141.06-4.67L141.06-4.67Q141.06-2.18 139.94-1.09L139.94-1.09L139.94-1.09Q138.82 0 137.02 0L137.02 0L111.81 0L111.81 0Q110.72-0.90 110.02-2.43L110.02-2.43L110.02-2.43Q109.31-3.97 109.31-5.95L109.31-5.95L109.31-5.95Q109.31-7.55 110.14-9.22L110.14-9.22L110.14-9.22Q110.98-10.88 112.13-12.29L112.13-12.29ZM195.07-19.39L195.07-6.34L195.07-6.34Q195.07-4.35 194.37-3.39L194.37-3.39L194.37-3.39Q193.66-2.43 192.13-1.54L192.13-1.54L192.13-1.54Q191.23-1.02 189.89-0.54L189.89-0.54L189.89-0.54Q188.54-0.06 186.94 0.29L186.94 0.29L186.94 0.29Q185.34 0.64 183.58 0.83L183.58 0.83L183.58 0.83Q181.82 1.02 180.10 1.02L180.10 1.02L180.10 1.02Q175.49 1.02 171.46-0.22L171.46-0.22L171.46-0.22Q167.42-1.47 164.45-4L164.45-4L164.45-4Q161.47-6.53 159.74-10.30L159.74-10.30L159.74-10.30Q158.02-14.08 158.02-19.07L158.02-19.07L158.02-19.07Q158.02-24.32 159.90-28.22L159.90-28.22L159.90-28.22Q161.79-32.13 164.90-34.72L164.90-34.72L164.90-34.72Q168-37.31 172-38.59L172-38.59L172-38.59Q176-39.87 180.22-39.87L180.22-39.87L180.22-39.87Q186.30-39.87 189.86-37.92L189.86-37.92L189.86-37.92Q193.41-35.97 193.41-32.83L193.41-32.83L193.41-32.83Q193.41-31.17 192.58-29.95L192.58-29.95L192.58-29.95Q191.74-28.74 190.66-28.03L190.66-28.03L190.66-28.03Q189.06-28.99 186.66-29.92L186.66-29.92L186.66-29.92Q184.26-30.85 181.25-30.85L181.25-30.85L181.25-30.85Q175.87-30.85 172.70-27.78L172.70-27.78L172.70-27.78Q169.54-24.70 169.54-19.26L169.54-19.26L169.54-19.26Q169.54-16.32 170.40-14.18L170.40-14.18L170.40-14.18Q171.26-12.03 172.74-10.66L172.74-10.66L172.74-10.66Q174.21-9.28 176.13-8.61L176.13-8.61L176.13-8.61Q178.05-7.94 180.22-7.94L180.22-7.94L180.22-7.94Q181.63-7.94 182.72-8.19L182.72-8.19L182.72-8.19Q183.81-8.45 184.38-8.77L184.38-8.77L184.38-14.78L177.54-14.78L177.54-14.78Q177.15-15.49 176.80-16.64L176.80-16.64L176.80-16.64Q176.45-17.79 176.45-19.07L176.45-19.07L176.45-19.07Q176.45-21.38 177.50-22.40L177.50-22.40L177.50-22.40Q178.56-23.42 180.22-23.42L180.22-23.42L191.04-23.42L191.04-23.42Q192.96-23.42 194.02-22.37L194.02-22.37L194.02-22.37Q195.07-21.31 195.07-19.39L195.07-19.39ZM210.69-37.63L210.69-37.63L210.69-37.63Q211.78-38.27 213.98-38.85L213.98-38.85L213.98-38.85Q216.19-39.42 218.43-39.42L218.43-39.42L218.43-39.42Q221.63-39.42 224.10-38.50L224.10-38.50L224.10-38.50Q226.56-37.57 227.26-35.58L227.26-35.58L227.26-35.58Q228.42-32.26 229.76-27.84L229.76-27.84L229.76-27.84Q231.10-23.42 232.45-18.72L232.45-18.72L232.45-18.72Q233.79-14.02 235.07-9.44L235.07-9.44L235.07-9.44Q236.35-4.86 237.31-1.34L237.31-1.34L237.31-1.34Q236.54-0.45 235.01 0.10L235.01 0.10L235.01 0.10Q233.47 0.64 231.36 0.64L231.36 0.64L231.36 0.64Q229.82 0.64 228.77 0.38L228.77 0.38L228.77 0.38Q227.71 0.13 227.04-0.38L227.04-0.38L227.04-0.38Q226.37-0.90 225.95-1.73L225.95-1.73L225.95-1.73Q225.54-2.56 225.22-3.65L225.22-3.65L224.06-8.06L212.48-8.06L212.48-8.06Q211.97-6.14 211.46-4.10L211.46-4.10L211.46-4.10Q210.94-2.05 210.43-0.13L210.43-0.13L210.43-0.13Q209.54 0.19 208.54 0.42L208.54 0.42L208.54 0.42Q207.55 0.64 206.14 0.64L206.14 0.64L206.14 0.64Q202.88 0.64 201.31-0.48L201.31-0.48L201.31-0.48Q199.74-1.60 199.74-3.58L199.74-3.58L199.74-3.58Q199.74-4.48 200.00-5.38L200.00-5.38L200.00-5.38Q200.26-6.27 200.58-7.49L200.58-7.49L200.58-7.49Q201.02-9.22 201.82-11.78L201.82-11.78L201.82-11.78Q202.62-14.34 203.58-17.31L203.58-17.31L203.58-17.31Q204.54-20.29 205.63-23.42L205.63-23.42L205.63-23.42Q206.72-26.56 207.68-29.34L207.68-29.34L207.68-29.34Q208.64-32.13 209.44-34.30L209.44-34.30L209.44-34.30Q210.24-36.48 210.69-37.63ZM218.75-29.38L218.37-29.38L218.37-29.38Q217.47-26.69 216.35-23.39L216.35-23.39L216.35-23.39Q215.23-20.10 214.34-16.70L214.34-16.70L222.27-16.70L222.27-16.70Q221.38-20.16 220.45-23.46L220.45-23.46L220.45-23.46Q219.52-26.75 218.75-29.38L218.75-29.38ZM269.38-9.54L269.38-9.54L269.38-9.54Q268.54-8.83 267.23-8.42L267.23-8.42L267.23-8.42Q265.92-8 264.19-8L264.19-8L264.19-8Q261.89-8 260.38-8.58L260.38-8.58L260.38-8.58Q258.88-9.15 258.43-10.56L258.43-10.56L258.43-10.56Q256.64-16.19 255.49-19.68L255.49-19.68L255.49-19.68Q254.34-23.17 253.70-25.79L253.70-25.79L253.38-25.79L253.38-25.79Q253.18-22.02 253.09-18.91L253.09-18.91L253.09-18.91Q252.99-15.81 252.96-12.86L252.96-12.86L252.96-12.86Q252.93-9.92 252.83-6.91L252.83-6.91L252.83-6.91Q252.74-3.90 252.54-0.26L252.54-0.26L252.54-0.26Q251.71 0.06 250.37 0.29L250.37 0.29L250.37 0.29Q249.02 0.51 247.68 0.51L247.68 0.51L247.68 0.51Q244.86 0.51 243.30-0.38L243.30-0.38L243.30-0.38Q241.73-1.28 241.73-3.65L241.73-3.65L243.58-36.29L243.58-36.29Q244.10-37.12 245.82-38.08L245.82-38.08L245.82-38.08Q247.55-39.04 250.69-39.04L250.69-39.04L250.69-39.04Q254.08-39.04 256.00-37.98L256.00-37.98L256.00-37.98Q257.92-36.93 258.82-34.56L258.82-34.56L258.82-34.56Q259.39-33.02 260.06-31.04L260.06-31.04L260.06-31.04Q260.74-29.06 261.41-26.94L261.41-26.94L261.41-26.94Q262.08-24.83 262.72-22.75L262.72-22.75L262.72-22.75Q263.36-20.67 263.87-19.01L263.87-19.01L264.19-19.01L264.19-19.01Q265.73-24.38 267.26-29.41L267.26-29.41L267.26-29.41Q268.80-34.43 270.08-37.82L270.08-37.82L270.08-37.82Q271.04-38.34 272.54-38.69L272.54-38.69L272.54-38.69Q274.05-39.04 275.90-39.04L275.90-39.04L275.90-39.04Q279.04-39.04 281.02-38.11L281.02-38.11L281.02-38.11Q283.01-37.18 283.33-35.46L283.33-35.46L283.33-35.46Q283.58-34.18 283.87-31.52L283.87-31.52L283.87-31.52Q284.16-28.86 284.48-25.54L284.48-25.54L284.48-25.54Q284.80-22.21 285.12-18.50L285.12-18.50L285.12-18.50Q285.44-14.78 285.73-11.36L285.73-11.36L285.73-11.36Q286.02-7.94 286.21-5.09L286.21-5.09L286.21-5.09Q286.40-2.24 286.46-0.70L286.46-0.70L286.46-0.70Q285.38-0.06 284.19 0.22L284.19 0.22L284.19 0.22Q283.01 0.51 281.15 0.51L281.15 0.51L281.15 0.51Q278.72 0.51 277.06-0.32L277.06-0.32L277.06-0.32Q275.39-1.15 275.26-3.58L275.26-3.58L275.26-3.58Q274.88-10.56 274.78-16.13L274.78-16.13L274.78-16.13Q274.69-21.70 274.50-25.47L274.50-25.47L274.18-25.47L274.18-25.47Q273.54-22.98 272.32-19.20L272.32-19.20L272.32-19.20Q271.10-15.42 269.38-9.54ZM293.57-5.76L293.57-32.83L293.57-32.83Q293.57-35.58 295.17-37.18L295.17-37.18L295.17-37.18Q296.77-38.78 299.52-38.78L299.52-38.78L320.64-38.78L320.64-38.78Q321.09-38.08 321.44-36.93L321.44-36.93L321.44-36.93Q321.79-35.78 321.79-34.50L321.79-34.50L321.79-34.50Q321.79-32.06 320.74-31.04L320.74-31.04L320.74-31.04Q319.68-30.02 317.95-30.02L317.95-30.02L304.45-30.02L304.45-24.06L318.85-24.06L318.85-24.06Q319.30-23.36 319.65-22.24L319.65-22.24L319.65-22.24Q320-21.12 320-19.84L320-19.84L320-19.84Q320-17.41 318.98-16.38L318.98-16.38L318.98-16.38Q317.95-15.36 316.22-15.36L316.22-15.36L304.45-15.36L304.45-8.64L320.90-8.64L320.90-8.64Q321.34-7.94 321.70-6.78L321.70-6.78L321.70-6.78Q322.05-5.63 322.05-4.35L322.05-4.35L322.05-4.35Q322.05-1.92 320.99-0.86L320.99-0.86L320.99-0.86Q319.94 0.19 318.21 0.19L318.21 0.19L299.52 0.19L299.52 0.19Q296.77 0.19 295.17-1.41L295.17-1.41L295.17-1.41Q293.57-3.01 293.57-5.76L293.57-5.76Z" fill="#00d8ff"></path></g></g><style>text {
  font-size: 64px;
  font-family: Arial Black;
  dominant-baseline: central;
  text-anchor: middle;
}</style></svg>